# xmcd CD database file
#
# Track frame offsets:
#	150
#	18097
#	34952
#	53140
#	72432
#	86480
#	105482
#	120362
#	137665
#	159555
#	175387
#	194682
#
# Disc length: 2915 seconds
#
# Revision: 0
# Processed by: cddbd v1.5.1PL2 Copyright (c) Steve Scherf et al.
# Submitted via: CDex 1.51
#
DISCID=9e0b610c
DTITLE=沢田聖子 - BEST SELECTION 沢田聖子1979-1983 [CD1]
DYEAR=1984
DGENRE=JPop
TTITLE0=キャンパススケッチ
TTITLE1=坂道の少女
TTITLE2=17才の感傷
TTITLE3=星空のメッセージ
TTITLE4=ミモザの下で
TTITLE5=シオン
TTITLE6=春
TTITLE7=バクの夢
TTITLE8=いつか君に
TTITLE9=こんな静かな夜は
TTITLE10=遠い街に憧れて
TTITLE11=青春の光と影
EXTD=YEAR: 1984
EXTT0=
EXTT1=
EXTT2=
EXTT3=
EXTT4=
EXTT5=
EXTT6=
EXTT7=
EXTT8=
EXTT9=
EXTT10=
EXTT11=
PLAYORDER=
